<svg width="34" height="40" viewBox="0 0 34 40" fill="none" xmlns="http://www.w3.org/2000/svg">
<path d="M33.08 7.24C33.08 7.32 33.2 7.68 33.2 7.68C33.4 7.68 33.4 7.32 33.4 7.12C33.48 7.08 33.6 6.96 33.6 6.84C33.6 6.76 33.52 6.76 33.44 6.76C33.4 6.96 33.32 7.24 33.08 7.24L33.24 6.92C33.24 6.72 33.12 6 33.52 6.44L33.56 6.08C33.56 6.04 33.56 5.96 33.52 5.96C33.44 5.96 33.36 6.12 33.32 6.16L33.24 5.32C33.24 5.2 32.92 4.64 33.2 4.64L33.08 3.72C32.48 2.96 31.4 2.16 30.56 1.72C30.4 1.48 29.08 1.24 28.76 1.12C28.68 0.96 27.36 0.8 27.12 0.8C26.88 0.56 26.28 0.64 25.96 0.64L25.84 0.48H25.04L24.68 0.319998H22.44C22.32 0.319998 22.2 0.360001 22.16 0.48C21.4 0.48 20.88 0.64 20.08 0.64C20.08 0.56 20.04 0.52 20 0.52C19.92 0.52 19.84 0.56 19.8 0.6L18.88 0.8C18.84 1.04 18.28 0.88 18.12 1.12L17.32 1.24C17.16 1.52 16.92 1.56 16.6 1.56L16.44 1.72H16.12C16.12 1.92 15.96 1.92 15.8 1.88C15.32 2.12 14.68 2.16 14.28 2.48C13.88 2.48 12.92 3.08 12.56 3.32C12.52 3.48 12.4 3.48 12.28 3.4L11.72 4C11.52 4 11.52 4.16 11.36 4.16L11.6 4.48H11.68C11.68 4.56 11.4 4.64 11.36 4.68L11.04 4.92L11.2 5.12L11.04 5.24C11.04 5.24 11.04 5.12 11 5.12C10.96 5.12 10.88 5.28 10.88 5.32C10.88 5.6 10.28 5.48 10.28 5.8L9.6 6.16H9.52C9.52 6.24 9.72 6.28 9.76 6.32L10.08 6.6C10.12 6.56 10.16 6.44 10.24 6.44C10.28 6.44 10.28 6.56 10.28 6.56L10.44 6.92C10 6.92 10.16 7.4 9.8 7.4C9.48 7.52 9.12 7.72 8.88 8C8.72 8 8.76 8.08 8.76 8.2C8.76 8.4 8.52 8.6 8.32 8.6L8.56 8.76C9.08 8.76 9.6 8.92 10.04 8.92L10.44 8.76C10.44 8.64 10.64 8.6 10.72 8.6C10.96 8.4 11.16 8.32 11.44 8.32C11.52 8.2 11.68 8.16 11.8 8.16C12.08 7.88 13.08 8 13.52 7.68L13.64 7.36C13.64 7.08 14.76 7.4 14.96 7.4C15.16 7.04 16.12 7.48 16.12 7.08H17.32V6.92C18.52 6.92 19.6 6.6 20.8 6.6L20.96 6.76C21.32 6.76 21.8 7.2 21.96 7.52L21.04 8.44C21.04 8.6 20.92 8.68 20.76 8.64C20.76 8.96 20.12 9 20.12 9.32C19.92 9.44 19.52 9.72 19.52 9.96L18.88 10.6C18.68 10.6 17.96 11.48 17.84 11.6C17.84 11.88 17.52 12.08 17.36 12.24C17.36 12.44 17.2 12.36 17.2 12.56L16.6 13.2C16.32 13.2 15.68 14.2 15.36 14.4C15.24 14.6 15.08 15.04 14.76 15.04C14.76 15.2 14.6 15.28 14.6 15.48L14.32 15.64C14.32 16 13.68 16.04 13.68 16.36C13.56 16.44 13.52 16.6 13.52 16.72L13.4 16.96C13.2 17 13.04 17.2 12.92 17.32C12.92 17.48 12.76 17.6 12.6 17.64C12.48 17.84 12.48 18.24 12.16 18.24C12.16 18.4 12 18.48 12 18.68C11.64 18.88 11.36 19.2 11.08 19.48C11.08 19.8 10.76 19.92 10.76 20.24C10.48 20.24 10.32 20.6 10.32 20.84L9.84 21.48C9.84 21.52 9.12 22.48 9.12 22.8L8.8 23C8.8 23.12 8.76 23.32 8.64 23.4C8.64 23.68 8.48 23.88 8.48 24.16C8.36 24.36 8.2 24.6 8.04 24.76C8.04 25.08 7.72 25.12 7.72 25.48C7.44 25.48 7.6 26.36 7.32 26.36L7.08 26.68C6.92 26.68 6.88 26.88 6.88 27L6.64 27.36C6.64 27.6 6.68 27.6 6.92 27.6C7.24 27.2 7.52 26.68 7.72 26.2C7.84 26.2 7.88 26.16 7.88 26.04C7.88 25.92 7.96 25.92 8.04 25.92C8.04 25.76 8.16 25.68 8.32 25.72C8.32 25.68 8.32 25.6 8.36 25.6C8.44 25.6 8.52 25.72 8.56 25.76C8.48 25.84 7.76 27.16 7.72 27.32L7.56 27.44C7.44 27.68 7.24 27.88 7.24 28.16C7.24 28.24 7.28 28.24 7.32 28.24C7.44 28.24 7.56 28.16 7.64 28.08L7.72 27.88C7.96 27.8 8.48 26.96 8.64 26.72C8.64 26.64 8.64 26.48 8.72 26.44L9.32 25.8L9.52 25.28C9.76 25.08 9.96 24.8 10.08 24.52C10.08 23.68 10.88 23.56 10.88 23.36L11.2 23.04C11.2 22.84 11.36 22.84 11.36 22.68C12.08 22.68 11.76 21.64 12.28 21.64C12.28 21.56 12.28 21.48 12.4 21.48C12.48 21.48 12.6 21.56 12.68 21.64C12.72 21.52 12.84 21.48 12.96 21.48L13.2 21.2C13.2 20.96 13.32 21 13.52 21L13.6 20.68H13.8C13.88 20.44 13.92 20.16 13.96 19.92C14.12 19.92 14.28 19.96 14.4 20.08C14.44 20.08 14.56 20.08 14.56 20.16C14.56 20.24 14.48 20.32 14.4 20.4C14.4 20.44 14.28 20.84 14.28 20.6L13.76 21C13.6 21 13.76 21.36 13.76 21.48C13.76 21.8 13.2 21.4 13.2 22.12C12.96 22.32 12.56 22.72 12.44 23.04C12 23.28 11.36 24.28 11.36 24.84L11.68 24.68C11.92 24.68 11.96 24.64 11.96 24.4C12.44 24 13.2 23.48 13.52 23C13.56 23.04 14 23.4 14 23.52C14 23.6 13.84 23.6 13.8 23.6C13.8 24.16 13.04 24.56 13.04 25.12C13.04 25.16 13.08 25.48 13.16 25.48C13.2 25.48 13.2 25.32 13.2 25.32L13.52 25C13.68 25 13.64 24.92 13.64 24.8C13.64 24.72 13.72 24.68 13.8 24.68C14.08 24.24 14.44 23.96 14.8 23.6L14.96 23.76L15.32 23.44C15.32 23.28 15.52 23.24 15.64 23.28L15.96 23C15.96 22.96 15.96 22.8 16.04 22.8C16.12 22.8 16.2 22.96 16.24 23C16.24 22.92 16.4 22.4 16.4 22.8L16.72 22.68L16.92 22.4C17 22.4 17.04 22.36 17.04 22.28C17.04 22.2 17 22.08 16.92 22.08C16.88 22.08 16.88 22.16 16.88 22.2L16.56 22.48C16.56 22.52 16.56 22.56 16.52 22.56C16.44 22.56 16.36 22.4 16.36 22.32C16.36 22.28 16.4 22.24 16.48 22.24C16.76 22.24 16.84 21.64 17.2 21.64L17.32 21.52C17.2 21.68 17.08 21.88 17.04 22.08C17.52 21.6 17.96 21.12 18.4 20.56C18.72 20.56 18.72 20.08 19.16 20.08C19.36 19.88 19.4 19.64 19.72 19.64V19.6C19.72 19.44 19.84 19.32 20.04 19.32L19.92 19.04L19.16 19.48L19.56 19.16C19.64 19 19.76 18.88 19.92 18.88L20.16 18.56L20.52 18.4L20.64 18.28L20.8 18.4L21.16 18.12H21.24C21.36 18.12 21.44 18.08 21.44 17.96L22.08 17.32C22.36 17.32 22.2 17.16 22.08 17.08L22.68 16.48C22.68 16.24 23.28 16.28 23.28 16.04L23.6 15.68L24.04 15.64C23.92 15.8 23.8 15.96 23.76 16.08C23.76 16.16 23.8 16.24 23.88 16.24C24.2 16.24 25.24 15.16 25.88 15C25.88 14.84 25.96 14.88 26.08 14.88C26.28 14.88 26.08 14.4 26.52 14.52L27.12 14.24C27.28 14.08 27.52 13.84 27.76 13.84L27.92 13.36L28.2 13.24L28.52 12.88C28.92 12.76 29.48 12.44 29.72 12.12C29.88 12.12 29.96 11.96 30.12 11.96C30.2 11.84 30.4 11.8 30.52 11.8L30.8 11.56L30.64 11.24C30.64 11.24 30.64 11.36 30.6 11.36C30.52 11.36 30.48 11.24 30.44 11.2C30.36 11.2 30.2 11.2 30.2 11.08C30.2 10.92 31.12 10.12 31.28 9.96C31.28 9.6 31.88 9.56 31.88 9.2C32.24 8.52 32.68 7.92 33.08 7.24ZM9.52 30.96L9.48 30.8L9.2 30.56C9.32 30.48 9.52 30.32 9.52 30.16C9.52 30.04 9.36 30.04 9.28 30.04C9.24 30 8.4 29.6 8.28 29.6C8.12 29.6 8.16 29.68 8.16 29.8C8.16 29.88 8.04 29.88 8 29.88C8.04 30 7.92 30.04 7.84 30.04C7.84 29.72 7.52 30.04 7.52 29.76L6.96 29.72L6.76 30.12C6.76 30.24 6.72 30.4 6.6 30.44C6.52 30.4 6.44 30.36 6.36 30.36C6 30.36 6.04 30.68 5.64 30.68C5.52 30.6 5.32 30.52 5.16 30.52L4.84 30.8L4.48 30.56C4.48 30.52 4.48 30.48 4.44 30.48C4.36 30.48 4.32 30.64 4.28 30.68L4.96 31.04C4.96 31.08 4.96 31.16 4.88 31.16C4.76 31.16 4.64 31.04 4.56 30.96C4.52 31.08 4.36 31.12 4.24 31.12C4.04 31.48 3.72 31.8 3.44 32.08C3.44 32.48 2.84 32.6 2.84 33.12C2.64 33.12 2.72 33.28 2.52 33.28C2.52 33.76 1.76 34.2 1.76 34.68C1.56 34.8 1.6 35.08 1.6 35.28L1.44 35.56C1.44 35.72 1.28 35.8 1.28 35.96L1 36.16L1.12 36.64C1 36.76 0.92 36.92 0.84 37.08C0.84 37.2 0.8 37.4 0.68 37.48C0.68 37.8 0.36 37.96 0.36 38.28L0.2 38.64C0.08 38.76 0.08 38.96 0.08 39.08C0.08 39.36 0.2 39.56 0.2 39.84C0.56 39.84 0.52 39.72 0.52 39.44C0.52 39.28 0.68 39.24 0.68 39.08C1 39.08 0.8 38.48 1.24 38.48L1.12 38.2C1.12 37.68 1.96 38.16 2.04 38.16L2.2 37.84C2.56 37.84 2.6 37.24 2.92 37.24V37.2C2.92 37.12 3.04 37.08 3.12 37.08L3.28 37.24L3.44 37.6C3.44 37.64 3.44 37.68 3.48 37.68C3.6 37.68 3.88 37.32 3.96 37.24C4 37.24 4.04 37.24 4.04 37.28C4.04 37.48 3.88 37.6 3.88 37.76C3.88 37.84 3.96 37.84 4 37.84C4.04 37.72 4.2 37.68 4.32 37.68L4.48 37.4L4.76 37.24C4.76 37.72 4.6 38.2 4.6 38.68C4.6 38.72 4.64 38.8 4.68 38.8C4.88 38.8 5.08 38.6 5.24 38.48C5.24 38.24 5.4 38.12 5.4 37.88C5.6 37.8 5.84 37.68 6 37.52C6.08 37.64 6.28 37.68 6.44 37.68L6.76 38C6.76 38.2 6.6 38.2 6.6 38.44C6.84 38.28 7.08 38.2 7.08 37.88C7.2 37.76 7.6 36.92 7.76 36.92C7.84 36.92 7.84 37 7.84 37.04C7.72 37.12 7.56 37.24 7.84 37.24C7.84 37.4 7.52 38.2 7.8 38.2C7.92 38.2 8 38.04 8 37.92C8.12 37.8 8.16 37.68 8.16 37.52C8.4 37.52 8.4 36.92 8.72 36.92C8.64 37.08 8.56 37.28 8.56 37.48C8.56 37.56 8.6 37.68 8.72 37.68C9 37.16 9.28 36.6 9.68 36.2C9.6 36.16 9.48 36.04 9.48 35.96C9.48 35.88 9.56 35.88 9.6 35.88C9.56 35.72 9.6 35.56 9.8 35.56C9.8 35.28 10.28 35.36 10.28 35C10.4 34.84 10.56 34.64 10.6 34.44C10.96 34.28 11.44 33.12 11.8 33.12L12.12 32.8C12.12 32.6 11.96 32.4 11.96 32.04L12.12 32C12.2 31.96 12.28 31.88 12.28 31.76C12.28 31.72 12.2 31.72 12.16 31.72C12.12 31.68 12.08 31.56 12.04 31.56C11.96 31.56 11.96 31.68 11.96 31.72L11.64 32L11.28 32.8C11.08 32.8 10.92 32.92 10.96 33.12L10.76 33.36C10.76 33.56 10.6 33.56 10.6 33.72C10.36 33.88 10.12 34 10.12 34.32L9.8 34.6V34.68C9.72 34.68 9.68 34.52 9.68 34.48C9.8 34.32 9.88 34.12 9.96 33.96C10.08 33.88 10.12 33.68 10.12 33.56C10.32 33.56 10.24 33.4 10.44 33.4C10.44 33.2 10.6 33.12 10.6 32.92C10.72 32.88 10.76 32.76 10.76 32.64C10.84 32.6 11.16 32.4 11.16 32.28C11.16 32.2 11 32.2 10.92 32.2C10.88 32.28 10.76 32.36 10.68 32.36C10.6 32.36 10.6 32.28 10.6 32.2L10.88 31.88L10.76 31.76L10.88 31.6L10.48 31.56C10.32 31.4 10.12 31.2 10.12 30.96H9.52ZM22.96 17.16C23.12 17.16 23.76 17.12 23.76 16.88C24.2 16.76 24.64 16.52 25 16.28C25.28 16.28 25.28 15.8 25.56 15.8C25.64 15.8 25.76 15.8 25.76 15.68C25.76 15.6 25.52 15.4 25.44 15.36L24.88 15.8C24.6 15.8 24.48 16.12 24.2 16.12C24.2 16.48 23.6 16.32 23.6 16.72C23.48 16.84 23.32 16.88 23.16 16.88L22.96 17.16ZM18.24 21.48L18.08 21.76C17.76 21.76 17.64 22 17.44 22.24C17.24 22.24 17.2 22.4 17.24 22.56L17.04 22.84C16.84 22.84 16.76 23 16.8 23.16C16.76 23.28 16.56 23.76 16.56 23.84C16.56 23.88 16.56 23.88 16.6 23.88C16.72 23.88 17 23.56 17.08 23.44C17.32 23.44 17.04 22.68 17.44 22.68C17.72 22.68 17.64 22.24 17.92 22.24L18.16 21.92L18.24 21.48ZM32.96 8.32C32.64 8.32 32.48 8.6 32.48 8.88C31.92 9.32 31.36 9.88 31.12 10.56C31 10.64 30.44 10.88 30.44 11.12C30.44 11.2 30.56 11.2 30.6 11.2C31 10.96 31.4 10.8 31.4 10.28L31.72 10C31.72 9.84 31.88 9.84 31.88 9.68C32.24 9.2 32.64 8.84 32.96 8.32ZM22.4 17.48C22.4 17.56 22.36 17.68 22.24 17.64C22.24 17.96 22.24 17.96 21.92 17.96C21.92 18.2 21.44 18.08 21.44 18.4L21 18.72C21 18.84 20.92 18.92 20.92 19C20.92 19.04 21.16 19.04 21.2 19.04C21.48 18.68 22.08 18.24 22.52 18.08V17.92C22.52 17.76 22.64 17.8 22.76 17.8C22.72 17.64 22.56 17.48 22.4 17.48ZM19.16 5.88L19.76 5.96H19.92L19.96 6H19.8L19.88 6.32H18.16C17.96 6.32 17.92 6.2 17.92 6C18.32 6 18.76 6.12 19.16 5.88ZM15.68 6.44C15.84 6.44 15.96 6.52 15.96 6.68V6.92C15.72 6.92 15.6 7.08 15.36 7.08C15.16 7.08 15 6.32 14.56 6.92H14.2L14.16 6.76C14.64 6.6 15.16 6.44 15.68 6.44ZM25.96 14.24C26.04 14.24 26.04 14.36 26.04 14.4L25.72 14.72L25.12 14.92L24.8 15.2C24.6 15.2 24.68 15.36 24.48 15.36L24.36 15.48C24.24 15.48 24.12 15.56 24.04 15.64C24.04 15.4 25.8 14.24 25.96 14.24ZM9.04 36.32L8.96 35.72C9.16 35.72 8.88 35.4 8.88 35.28C8.88 35.24 8.92 35.24 8.96 35.24L9.04 34.92L9.36 35.08C9.36 34.92 9.44 34.92 9.44 35.08C9.44 35.2 9.28 35.24 9.2 35.24C9.2 35.4 9.24 35.6 9.32 35.72L9.28 36.16C9.04 36.16 9.16 36.64 8.88 36.64C8.88 36.64 8.76 36.64 8.76 36.6C8.76 36.48 8.96 36.36 9.04 36.32ZM32.08 6.88C32.2 6.88 32.36 7.04 32.36 7.16C32.36 7.24 32.24 7.24 32.2 7.24L32.16 7.84C32.04 7.84 31.76 7.8 31.84 7.6C31.84 7.52 31.96 6.88 32.08 6.88ZM15.32 19.16L15.04 19.48C14.96 19.44 14.84 19.32 14.84 19.24C14.84 19.16 14.96 19.16 15.04 19.16C15.04 18.84 15.48 18.72 15.48 18.4C15.52 18.36 15.64 18.24 15.72 18.24C15.8 18.24 15.8 18.36 15.8 18.4L15.48 18.72C15.48 18.88 15.32 18.96 15.32 19.16ZM9.36 8.16C9.36 8.12 9.4 8.12 9.4 8.12C9.56 8.12 9.88 8.36 9.88 8.52C9.88 8.6 9.76 8.6 9.68 8.6C9.52 8.6 9.2 8.56 9.2 8.36C9.2 8.28 9.32 8.2 9.36 8.16ZM18.4 16.28C18.4 16 18.84 16.12 18.84 15.84L19.16 15.72L19.48 15.8L18.84 16.12C18.84 16.48 18.4 16.08 18.4 16.36C18.36 16.36 18.24 16.32 18.24 16.32C18.24 16.28 18.32 16.28 18.4 16.28ZM31.72 8.16C31.76 8.16 32.04 8.24 32.04 8.28C32.04 8.32 31.88 8.32 31.88 8.32L31.68 8.76L31.28 8.64L31.4 8.32C31.52 8.36 31.72 8.32 31.72 8.16ZM17.2 17.8C17.2 17.8 17.2 17.64 17.24 17.64C17.28 17.64 17.28 17.76 17.28 17.76C17.28 17.88 17.24 17.96 17.12 17.96C17.12 17.96 16.52 18.56 16.44 18.56C16.4 18.56 16.4 18.48 16.4 18.48C16.4 18.24 16.48 18.24 16.68 18.24C16.76 18.04 16.96 17.8 17.2 17.8ZM31.88 4.48C32.04 4.48 32.16 4.56 32.16 4.72V5.36L32 5.28C32 4.96 31.88 4.76 31.88 4.48ZM16.24 17.64C16.36 17.64 16.76 17.76 16.76 17.76C16.76 18 16.36 17.96 16.12 17.96L16.24 17.64ZM19.16 0.159998L18.92 0.48C19 0.48 19.64 0.360001 19.64 0.199998C19.64 0.159998 19.56 0.159998 19.56 0.159998H19.16ZM30.2 9.68L30.36 9.96L30.12 10.12L29.88 9.96C29.88 9.68 30.2 10 30.2 9.68ZM11.36 24.84C11.12 24.84 11.04 25.12 11.04 25.32C11.28 25.32 11.36 25.04 11.36 24.84ZM30.8 9.52V9.48C30.8 9.36 30.84 9.2 31 9.2C31.04 9.2 31.12 9.2 31.12 9.24C31.12 9.32 31 9.36 30.96 9.4C30.96 9.52 30.92 9.64 30.8 9.64C30.76 9.64 30.68 9.6 30.68 9.56C30.68 9.52 30.76 9.52 30.8 9.52ZM12.72 26.04C12.48 26.04 12.44 26.36 12.44 26.52C12.68 26.52 12.72 26.2 12.72 26.04ZM11.8 31.12C11.8 31.28 11.8 31.4 12 31.4H12.24C12.16 31.24 12 31.12 11.8 31.12ZM20.84 5.72C20.84 5.64 20.96 5.64 21 5.64C21.08 5.64 21.48 5.72 21.48 5.8C21.48 5.84 21.32 5.84 21.32 5.84C21.16 5.84 21 5.76 20.84 5.72ZM27.76 0.319998C27.76 0.56 28.08 0.48 28.24 0.48L28.28 0.319998H27.76ZM11.04 4.48L10.76 4.52L10.6 4.8H10.64C10.84 4.8 10.96 4.64 11.04 4.48ZM32.96 8.32L33.24 7.88C33.2 7.84 33.16 7.8 33.12 7.8C32.96 7.8 32.96 8.24 32.96 8.32ZM18.84 20.84L18.56 21C18.48 21 18.44 21.04 18.44 21.12L18.48 21.32L18.84 20.84ZM31.88 6.76L32 6.68L31.96 6.72L31.92 6.8L31.88 7C31.88 7.04 31.88 7.08 31.84 7.08C31.76 7.08 31.72 6.96 31.72 6.88C31.72 6.8 31.8 6.76 31.88 6.76ZM16.24 6.32C16.28 6.32 16.6 6.4 16.6 6.4C16.6 6.44 16.4 6.44 16.4 6.44C16.4 6.48 16.4 6.6 16.36 6.6C16.28 6.6 16.24 6.36 16.24 6.32ZM8.44 35.88L8.52 35.8C8.44 35.92 8.44 36.16 8.4 36.16C8.32 36.16 8.28 36.04 8.28 36C8.28 35.92 8.36 35.88 8.44 35.88ZM30.48 8.32L30.96 8.36C30.88 8.4 30.48 8.48 30.48 8.32ZM31.72 4.04C31.76 4.04 31.76 4 31.8 4C31.84 4 31.88 4.04 31.88 4.08C31.88 4.12 31.88 4.2 31.8 4.2C31.76 4.2 31.72 4.08 31.72 4.04ZM29.4 12C29.44 12 29.44 11.96 29.48 11.96C29.52 11.96 29.56 12 29.56 12.04C29.56 12.08 29.56 12.16 29.48 12.16C29.44 12.16 29.4 12.04 29.4 12ZM14.88 19.68C14.92 19.68 14.92 19.64 14.96 19.64C15 19.64 15.04 19.68 15.04 19.72C15.04 19.76 15.04 19.84 14.96 19.84C14.92 19.84 14.88 19.72 14.88 19.68ZM8.88 8.48C8.92 8.48 8.92 8.44 8.96 8.44C9 8.44 9.04 8.48 9.04 8.52C9.04 8.56 9.04 8.64 8.96 8.64C8.92 8.64 8.88 8.52 8.88 8.48ZM15.96 22.28C16 22.28 16 22.24 16.04 22.24C16.08 22.24 16.12 22.28 16.12 22.32C16.12 22.36 16.12 22.44 16.04 22.44C16 22.44 15.96 22.32 15.96 22.28ZM17.32 6H17.36C17.44 6 17.48 6 17.48 6.08C17.48 6.12 17.48 6.16 17.44 6.16C17.36 6.16 17.32 6.08 17.32 6ZM31.28 7.56L31.56 7.6C31.52 7.64 31.44 7.68 31.36 7.68C31.32 7.68 31.28 7.6 31.28 7.56ZM30.8 7.88L31.12 7.92C31.04 7.96 30.8 8.04 30.8 7.88ZM19.8 5.44C19.8 5.44 19.84 5.4 19.88 5.4C19.92 5.4 19.92 5.44 19.92 5.48C19.92 5.52 19.92 5.6 19.88 5.6C19.8 5.6 19.8 5.48 19.8 5.44ZM21.32 17.52C21.32 17.52 21.36 17.48 21.4 17.48C21.44 17.48 21.44 17.52 21.44 17.56C21.44 17.6 21.44 17.68 21.4 17.68C21.32 17.68 21.32 17.56 21.32 17.52ZM12.12 4.64L12.28 4.68C12.28 4.72 12.28 4.8 12.2 4.8C12.16 4.8 12.12 4.68 12.12 4.64ZM20.36 15.2L20.52 15.24C20.52 15.28 20.52 15.36 20.44 15.36C20.4 15.36 20.36 15.24 20.36 15.2ZM29.72 11.68L29.88 11.72C29.88 11.76 29.88 11.84 29.8 11.84C29.76 11.84 29.72 11.72 29.72 11.68ZM16.72 6.16L16.88 6.2C16.88 6.24 16.88 6.32 16.8 6.32C16.76 6.32 16.72 6.2 16.72 6.16ZM29.56 10.16L29.72 10.2C29.72 10.24 29.72 10.32 29.64 10.32C29.6 10.32 29.56 10.2 29.56 10.16ZM32 6.32L32.16 6.36C32.16 6.4 32.16 6.48 32.08 6.48C32.04 6.48 32 6.36 32 6.32ZM15.64 18.88L15.8 18.92C15.8 18.96 15.8 19.04 15.72 19.04C15.68 19.04 15.64 18.92 15.64 18.88ZM16.12 18.72C16.2 18.72 16.24 18.8 16.24 18.88C16.12 18.88 16.12 18.84 16.12 18.72ZM11.8 4.8C11.88 4.8 11.96 4.84 11.96 4.92H11.88C11.8 4.92 11.8 4.84 11.8 4.8Z" fill="black"/>
</svg>
