<svg width="1920" height="1080" viewBox="0 0 1920 1080" fill="none" xmlns="http://www.w3.org/2000/svg">
<rect width="1920" height="1080" fill="black"/>
<rect width="1920" height="596" fill="url(#paint0_linear)"/>
<circle cx="1238.5" cy="356.018" r="215.5" fill="url(#paint1_linear)"/>
<path d="M1826.5 453.518L1920 546.518V661.018H0V509.018L50 463.518L96.5 546.518L187.5 463.518L256.5 509.018L324.5 433.518L410 509.018L522.5 415.018L578.5 492.518L738.5 374.518L789 463.518L832.5 403.018L977.5 474.018L1152.5 374.518L1248.5 474.018L1307.5 415.018L1386.5 474.018L1489.5 443.518L1567 502.518L1658 443.518L1745.5 517.518L1826.5 453.518Z" fill="black" fill-opacity="0.2"/>
<path d="M85.4658 501.518L1.33335e-05 619.018L0 661.518H1920V523.018L1870 464.018L1814.5 523.018L1725 434.018L1671.5 474.518L1595.5 434.018L1516.5 491.018L1422 434.018L1348 474.518L1253.5 403.518L1181 474.518L1083.5 353.018L1033 403.518L910 287.018L726.46 452.518L667.5 365.018L527.5 474.518L447.205 434.018L369.5 535.018L288.5 491.018L170.932 553.518L85.4658 501.518Z" fill="black"/>
<rect y="75" width="1920" height="4.293" fill="black" fill-opacity="0.1"/>
<rect y="86.6524" width="1920" height="4.293" fill="black" fill-opacity="0.1"/>
<rect y="98.3049" width="1920" height="4.293" fill="black" fill-opacity="0.1"/>
<rect y="109.957" width="1920" height="4.293" fill="black" fill-opacity="0.1"/>
<rect y="121.61" width="1920" height="4.293" fill="black" fill-opacity="0.1"/>
<rect y="133.262" width="1920" height="4.293" fill="black" fill-opacity="0.1"/>
<rect y="144.915" width="1920" height="4.293" fill="black" fill-opacity="0.1"/>
<rect y="156.567" width="1920" height="4.293" fill="black" fill-opacity="0.1"/>
<rect y="168.219" width="1920" height="4.293" fill="black" fill-opacity="0.1"/>
<rect y="179.872" width="1920" height="4.293" fill="black" fill-opacity="0.1"/>
<rect y="191.524" width="1920" height="4.293" fill="black" fill-opacity="0.1"/>
<rect y="203.177" width="1920" height="4.293" fill="black" fill-opacity="0.1"/>
<rect y="214.829" width="1920" height="4.293" fill="black" fill-opacity="0.1"/>
<rect y="226.482" width="1920" height="4.293" fill="black" fill-opacity="0.1"/>
<rect y="239.262" width="1920" height="4.293" fill="black" fill-opacity="0.1"/>
<rect y="250.915" width="1920" height="4.293" fill="black" fill-opacity="0.1"/>
<rect y="262.567" width="1920" height="4.293" fill="black" fill-opacity="0.1"/>
<rect y="274.22" width="1920" height="4.293" fill="black" fill-opacity="0.1"/>
<rect y="285.872" width="1920" height="4.293" fill="black" fill-opacity="0.1"/>
<rect y="297.524" width="1920" height="4.293" fill="black" fill-opacity="0.1"/>
<rect y="309.177" width="1920" height="4.293" fill="black" fill-opacity="0.1"/>
<rect y="320.829" width="1920" height="4.293" fill="black" fill-opacity="0.1"/>
<rect y="332.482" width="1920" height="4.293" fill="black" fill-opacity="0.1"/>
<rect y="344.134" width="1920" height="4.293" fill="black" fill-opacity="0.1"/>
<rect y="355.787" width="1920" height="4.293" fill="black" fill-opacity="0.1"/>
<rect y="367.439" width="1920" height="4.293" fill="black" fill-opacity="0.1"/>
<rect y="379.091" width="1920" height="4.293" fill="black" fill-opacity="0.1"/>
<rect y="390.744" width="1920" height="4.293" fill="black" fill-opacity="0.1"/>
<rect y="402.396" width="1920" height="4.293" fill="black" fill-opacity="0.1"/>
<rect y="414.049" width="1920" height="4.293" fill="black" fill-opacity="0.1"/>
<rect y="425.701" width="1920" height="4.293" fill="black" fill-opacity="0.1"/>
<rect y="437.354" width="1920" height="4.293" fill="black" fill-opacity="0.1"/>
<rect y="449.006" width="1920" height="4.293" fill="black" fill-opacity="0.1"/>
<rect y="460.658" width="1920" height="4.293" fill="black" fill-opacity="0.1"/>
<rect y="472.311" width="1920" height="4.293" fill="black" fill-opacity="0.1"/>
<rect y="483.963" width="1920" height="4.293" fill="black" fill-opacity="0.1"/>
<rect y="495.616" width="1920" height="4.293" fill="black" fill-opacity="0.1"/>
<rect y="507.268" width="1920" height="4.293" fill="black" fill-opacity="0.1"/>
<rect y="518.921" width="1920" height="4.293" fill="black" fill-opacity="0.1"/>
<rect y="530.573" width="1920" height="4.293" fill="black" fill-opacity="0.1"/>
<rect y="542.225" width="1920" height="4.293" fill="black" fill-opacity="0.1"/>
<defs>
<linearGradient id="paint0_linear" x1="960" y1="0" x2="960" y2="596" gradientUnits="userSpaceOnUse">
<stop/>
<stop offset="1" stop-color="#540D6E"/>
</linearGradient>
<linearGradient id="paint1_linear" x1="1238.5" y1="140.518" x2="1238.5" y2="571.518" gradientUnits="userSpaceOnUse">
<stop stop-color="#A32BC7"/>
<stop offset="0.5625" stop-color="#680698" stop-opacity="0.54"/>
<stop offset="0.682292" stop-color="#3B005B" stop-opacity="0.39"/>
<stop offset="1" stop-color="#2E0450" stop-opacity="0"/>
</linearGradient>
</defs>
</svg>
