<?xml version="1.0" encoding="utf-8"?>
<!-- Generator: Adobe Illustrator 24.0.0, SVG Export Plug-In . SVG Version: 6.00 Build 0)  -->
<svg version="1.1" id="Capa_1" xmlns="http://www.w3.org/2000/svg" xmlns:xlink="http://www.w3.org/1999/xlink" x="0px" y="0px"
	 viewBox="0 0 512 512" style="enable-background:new 0 0 512 512;" xml:space="preserve">
<g>
	<g>
		<path d="M262.8,57.9c-5-2.6-11.1-2.1-15.6,1.3l-116.5,85.5H15c-8.3,0-15,6.7-15,15v192.8c0,8.3,6.7,15,15,15h115.6l116.5,85.5
			c2.6,1.9,5.7,2.9,8.9,2.9c2.3,0,4.6-0.5,6.8-1.6c5-2.6,8.2-7.7,8.2-13.4V71.2C271,65.6,267.8,60.4,262.8,57.9z M241,411.2
			l-96.6-70.9c-2.6-1.9-5.7-2.9-8.9-2.9H30V174.6h105.5c3.2,0,6.3-1,8.9-2.9l96.6-70.9V411.2z"/>
	</g>
</g>
<path d="M439.9,57L439.9,57c-3.9-6.7-12.4-9-19.1-5.1l-96.1,55.5c-6.7,3.9-9,12.4-5.1,19.1v0c3.9,6.7,12.4,9,19.1,5.1l96.1-55.5
	C441.5,72.3,443.8,63.7,439.9,57z"/>
<path d="M439.9,455L439.9,455c-3.9,6.7-12.4,9-19.1,5.1l-96.1-55.5c-6.7-3.9-9-12.4-5.1-19.1v0c3.9-6.7,12.4-9,19.1-5.1l96.1,55.5
	C441.5,439.7,443.8,448.3,439.9,455z"/>
<path d="M350.2,256L350.2,256c0-7.7,6.3-14,14-14l111,0c7.7,0,14,6.3,14,14l0,0c0,7.7-6.3,14-14,14l-111,0
	C356.5,270,350.2,263.7,350.2,256z"/>
</svg>
